<?xml version="1.0" encoding="UTF-8"?>
<svg id="Laag_1" xmlns="http://www.w3.org/2000/svg" version="1.1" viewBox="0 0 197.67 214.2">
  <!-- Generator: Adobe Illustrator 30.3.0, SVG Export Plug-In . SVG Version: 2.1.3 Build 182)  -->
  <defs>
    <style>
      .st0 {
        fill: #2d2d2d;
      }
    </style>
  </defs>
  <path class="st0" d="M135.39,92.58h56.29c4.89,0,7.71,5.54,4.85,9.5l-43.36,59.82c-2.39,3.3-7.3,3.3-9.69,0l-27.63-38.14c-2.28-3.14-2.28-7.39,0-10.54l12.28-16.94c1.69-2.33,4.39-3.71,7.27-3.71ZM104.4,144.12l-34.67-47.83c-1.69-2.33-4.39-3.71-7.27-3.71H6c-4.89,0-7.71,5.54-4.85,9.5l68.54,94.6c.12.17.49.68.61.85,3.73,5.44,8.74,9.63,14.79,12.2.4.17.81.34,1.23.49.42.16.85.32,1.27.47.86.29,1.73.56,2.63.78,2.69.67,5.49,1.06,8.39,1.06.57,0,1.1,0,1.66-.03,6.43-.31,12.41-2.07,17.46-5.42,2.34-1.56,4.98-3.26,6.7-5.49,3.26-4.24,6.16-8.59,8.21-11.32,1.58-2.1,1.54-5.06,0-7.19l-28.23-38.95ZM101.36,1.69c-19.23,0-34.82,15.59-34.82,34.82s15.59,34.82,34.82,34.82,34.82-15.59,34.82-34.82S120.59,1.69,101.36,1.69Z"/>
</svg>